<mxfile host="app.diagrams.net" modified="2024-06-06T04:39:36.168Z" agent="Mozilla/5.0 (Windows NT 10.0; Win64; x64) AppleWebKit/537.36 (KHTML, like Gecko) Chrome/123.0.0.0 Safari/537.36 OPR/109.0.0.0" version="24.4.2" etag="lysMLOHrKwWH7mVJsYjo" type="github">
  <diagram name="Strona-1" id="zykCl6SHZzAQt8W0-RUg">
    <mxGraphModel>
      <root>
        <mxCell id="0" />
        <mxCell id="1" parent="0" />
      </root>
    </mxGraphModel>
  </diagram>
</mxfile>
